<svg xmlns="http://www.w3.org/2000/svg" width="24" height="24" fill="none" viewBox="0 0 24 24" id="calendar-due"><path fill="#000" d="M7 8C7 7.44772 7.44772 7 8 7H16C16.5523 7 17 7.44772 17 8 17 8.55228 16.5523 9 16 9H8C7.44772 9 7 8.55228 7 8zM12 16C13.1046 16 14 15.1046 14 14 14 12.8954 13.1046 12 12 12 10.8954 12 10 12.8954 10 14 10 15.1046 10.8954 16 12 16z"></path><path fill="#000" fill-rule="evenodd" d="M6 3C4.34315 3 3 4.34315 3 6V18C3 19.6569 4.34315 21 6 21H18C19.6569 21 21 19.6569 21 18V6C21 4.34315 19.6569 3 18 3H6ZM18 5H6C5.44772 5 5 5.44772 5 6V18C5 18.5523 5.44772 19 6 19H18C18.5523 19 19 18.5523 19 18V6C19 5.44772 18.5523 5 18 5Z" clip-rule="evenodd"></path></svg>